#!OML:ASF G:\JayActor3\Patient Classification 1\Patient 1\Session 5\male.ASF
:FULLY-SPECIFIED
:DEGREES
1257
root -36.4586 16.8702 -23.714 9.90516 -242.997 10.0537
lowerback 1.73849 -1.44744 2.65518
upperback 1.47592 -1.88035 0.0872615
thorax 0.455846 -0.912251 -1.37162
lowerneck 1.1162 -5.24092 -2.36602
upperneck 4.65016 -7.15415 6.36468
head 1.62112 -3.48294 2.33788
rclavicle -3.59303e-014 2.78299e-015
rhumerus -32.6772 -21.1798 -81.3384
rradius 14.0136
rwrist 26.1354
rhand -17.6991 -4.9578
rfingers 7.12502
rthumb 8.56071 -34.7643
lclavicle -3.59303e-014 2.78299e-015
lhumerus -33.5887 28.6289 73.2121
lradius 8.42786
lwrist -2.3167
lhand -26.3955 17.6022
lfingers 7.12502
lthumb 0.163716 47.5819
rfemur -10.5694 4.01034 29.5781
rtibia 33.9526
rfoot -30.6153 -12.127
rtoes 23.9465
lfemur -2.63034 0.55208 -16.5957
ltibia 22.9649
lfoot -16.0886 14.3824
ltoes -19.743
1258
root -36.46 16.8689 -23.712 9.95774 -243.052 10.1127
lowerback 1.71968 -1.43684 2.65905
upperback 1.477 -1.86688 0.0782929
thorax 0.467655 -0.905341 -1.38372
lowerneck 1.12472 -5.249 -2.4536
upperneck 4.63023 -7.16708 6.43126
head 1.62083 -3.49056 2.37558
rclavicle 3.26504e-014 -8.74653e-015
rhumerus -32.6919 -21.1359 -81.3705
rradius 14.0428
rwrist 26.0615
rhand -17.6186 -4.97514
rfingers 7.12502
rthumb 8.63844 -34.7784
lclavicle 3.26504e-014 -8.74653e-015
lhumerus -33.5176 28.4408 73.3372
lradius 8.42104
lwrist -2.12641
lhand -26.3995 17.6428
lfingers 7.12502
lthumb 0.159936 47.6225
rfemur -10.5928 4.02866 29.5983
rtibia 33.9835
rfoot -30.5996 -12.1031
rtoes 23.9276
lfemur -2.63111 0.559533 -16.5898
ltibia 22.9555
lfoot -15.9705 14.5433
ltoes -20.162
1259
root -36.4617 16.8676 -23.7098 9.99915 -243.108 10.161
lowerback 1.71835 -1.43073 2.65626
upperback 1.47336 -1.85887 0.070408
thorax 0.464844 -0.901452 -1.39034
lowerneck 1.13076 -5.24241 -2.49238
upperneck 4.60489 -7.15881 6.46509
head 1.61446 -3.48731 2.39419
rclavicle -3.13086e-015 -1.03368e-014
rhumerus -32.7082 -21.1032 -81.3908
rradius 14.0636
rwrist 26.0107
rhand -17.5445 -5.00266
rfingers 7.12502
rthumb 8.7099 -34.803
lclavicle -3.13086e-015 -1.03368e-014
lhumerus -33.4606 28.2622 73.453
lradius 8.41497
lwrist -1.9558
lhand -26.3929 17.684
lfingers 7.12502
lthumb 0.166305 47.6637
rfemur -10.6186 4.04114 29.6129
rtibia 34.0187
rfoot -30.5757 -12.0849
rtoes 23.8819
lfemur -2.6307 0.561742 -16.5901
ltibia 22.9431
lfoot -15.8469 14.7062
ltoes -20.5878
1260
root -36.4638 16.8662 -23.7074 10.0334 -243.165 10.2035
lowerback 1.73532 -1.43145 2.6498
upperback 1.46522 -1.85937 0.0644686
thorax 0.446973 -0.902093 -1.39221
lowerneck 1.1303 -5.22229 -2.49461
upperneck 4.58279 -7.13141 6.47049
head 1.60637 -3.47414 2.39707
rclavicle 4.82053e-015 -6.36111e-015
rhumerus -32.7231 -21.0781 -81.4017
rradius 14.074
rwrist 25.9852
rhand -17.4773 -5.04723
rfingers 7.12502
rthumb 8.77475 -34.8448
lclavicle 4.82053e-015 -6.36111e-015
lhumerus -33.4176 28.1017 73.5588
lradius 8.40975
lwrist -1.79899
lhand -26.3796 17.7255
lfingers 7.12502
lthumb 0.179118 47.7052
rfemur -10.6468 4.0483 29.6237
rtibia 34.0583
rfoot -30.5487 -12.0653
rtoes 23.8293
lfemur -2.62793 0.560765 -16.5943
ltibia 22.9263
lfoot -15.7157 14.8726
ltoes -21.0182
1261
root -36.4662 16.8647 -23.7049 10.0537 -243.225 10.2324
lowerback 1.76778 -1.43236 2.64251
upperback 1.45092 -1.8596 0.0540055
thorax 0.414021 -0.902872 -1.39773
lowerneck 1.13371 -5.19899 -2.46211
upperneck 4.56998 -7.09911 6.4553
head 1.59787 -3.45801 2.38706
rclavicle 5.71009e-014 -7.95139e-016
rhumerus -32.7478 -21.0889 -81.3939
rradius 14.0767
rwrist 25.99
rhand -17.4274 -5.09645
rfingers 7.12502
rthumb 8.82294 -34.892
lclavicle 5.71009e-014 -7.95139e-016
lhumerus -33.3878 27.9366 73.6548
lradius 8.40767
lwrist -1.65175
lhand -26.3638 17.7704
lfingers 7.12502
lthumb 0.194417 47.75
rfemur -10.6765 4.04607 29.6258
rtibia 34.1012
rfoot -30.5127 -12.0379
rtoes 23.7679
lfemur -2.62423 0.556399 -16.6069
ltibia 22.9087
lfoot -15.5801 15.0397
ltoes -21.4544
1262
root -36.4687 16.8634 -23.7025 10.0684 -243.287 10.2545
lowerback 1.80868 -1.43746 2.63259
upperback 1.43443 -1.86518 0.0444914
thorax 0.37396 -0.90646 -1.40046
lowerneck 1.13446 -5.17102 -2.42436
upperneck 4.56413 -7.06047 6.42997
head 1.59108 -3.43863 2.37275
rclavicle 8.27938e-014 -1.31198e-014
rhumerus -32.7689 -21.1034 -81.3816
rradius 14.075
rwrist 26.0051
rhand -17.4104 -5.13606
rfingers 7.12502
rthumb 8.83929 -34.9309
lclavicle 8.27938e-014 -1.31198e-014
lhumerus -33.37 27.7825 73.7426
lradius 8.41312
lwrist -1.50863
lhand -26.3441 17.8144
lfingers 7.12502
lthumb 0.213442 47.7941
rfemur -10.7096 4.04764 29.6238
rtibia 34.1465
rfoot -30.4754 -12.0142
rtoes 23.704
lfemur -2.62158 0.55097 -16.625
ltibia 22.8895
lfoot -15.4388 15.2121
ltoes -21.8922
1263
root -36.4713 16.8619 -23.7002 10.0753 -243.347 10.267
lowerback 1.84992 -1.44169 2.61849
upperback 1.41728 -1.86966 0.0341776
thorax 0.333193 -0.909546 -1.40166
lowerneck 1.13809 -5.14508 -2.40031
upperneck 4.56272 -7.02498 6.41077
head 1.58629 -3.42091 2.3629
rclavicle -5.6753e-014 1.63003e-014
rhumerus -32.7926 -21.1336 -81.3612
rradius 14.0769
rwrist 26.0229
rhand -17.4134 -5.16535
rfingers 7.12502
rthumb 8.83645 -34.9603
lclavicle -5.6753e-014 1.63003e-014
lhumerus -33.3545 27.6233 73.8311
lradius 8.42314
lwrist -1.35779
lhand -26.3224 17.8528
lfingers 7.12502
lthumb 0.234329 47.8324
rfemur -10.7429 4.04799 29.6188
rtibia 34.1926
rfoot -30.4379 -11.9849
rtoes 23.6538
lfemur -2.62046 0.546653 -16.6477
ltibia 22.8702
lfoot -15.2905 15.3836
ltoes -22.3235
1264
root -36.4739 16.8608 -23.6979 10.0786 -243.408 10.2744
lowerback 1.88726 -1.44433 2.60304
upperback 1.40174 -1.87221 0.0216719
thorax 0.296309 -0.911591 -1.40451
lowerneck 1.14238 -5.11944 -2.36067
upperneck 4.56602 -6.98966 6.38401
head 1.58191 -3.40299 2.34775
rclavicle -7.92654e-014 3.97569e-015
rhumerus -32.8136 -21.1558 -81.3508
rradius 14.0877
rwrist 26.0189
rhand -17.4427 -5.18139
rfingers 7.12502
rthumb 8.8082 -34.9776
lclavicle -7.92654e-014 3.97569e-015
lhumerus -33.3359 27.4578 73.9182
lradius 8.43522
lwrist -1.19966
lhand -26.2976 17.8831
lfingers 7.12502
lthumb 0.258332 47.8627
rfemur -10.7771 4.06258 29.6122
rtibia 34.2385
rfoot -30.4016 -11.9576
rtoes 23.6244
lfemur -2.61879 0.540833 -16.6736
ltibia 22.8497
lfoot -15.1396 15.5565
ltoes -22.7477
1265
root -36.476 16.8597 -23.6957 10.082 -243.469 10.2809
lowerback 1.91509 -1.44814 2.58126
upperback 1.39238 -1.87674 0.0133257
thorax 0.271345 -0.914435 -1.39988
lowerneck 1.13705 -5.09523 -2.33291
upperneck 4.57817 -6.95683 6.36061
head 1.58287 -3.38616 2.33547
rclavicle -5.22307e-014 3.18055e-015
rhumerus -32.82 -21.1436 -81.3583
rradius 14.1109
rwrist 25.9757
rhand -17.4776 -5.21968
rfingers 7.12502
rthumb 8.77443 -35.0173
lclavicle -5.22307e-014 3.18055e-015
lhumerus -33.3076 27.3017 74.0117
lradius 8.44624
lwrist -1.02865
lhand -26.2796 17.9129
lfingers 7.12502
lthumb 0.275676 47.8925
rfemur -10.8091 4.0858 29.6078
rtibia 34.2831
rfoot -30.3779 -11.9355
rtoes 23.6185
lfemur -2.61561 0.539448 -16.6986
ltibia 22.8282
lfoot -14.9854 15.7256
ltoes -23.1633
